<svg xmlns="http://www.w3.org/2000/svg" width="64" height="64" viewBox="0 0 64 64">
  <defs>
    <style>
      .cls-1 {
        fill: #333;
        fill-rule: evenodd;
      }
    </style>
  </defs>
  <path id="help-library-l" class="cls-1" d="M400,2573H352v35h30v2H352a2.209,2.209,0,0,1-2-2v-35a2.064,2.064,0,0,1,2-2h48a2.14,2.14,0,0,1,2,2v23l-2-1v-22Zm-32,40h3.25l0.75-3h2l-0.75,3h5.5l-0.75-3h2l0.75,3H382l1,2H368A1,1,0,0,1,368,2613Zm9-8a1,1,0,1,1-1-1A1,1,0,0,1,377,2605Zm7-5-1.942,2H354v-27h44v20h-2v-18H356v23h28Zm11-3a11,11,0,1,1-11,11A11,11,0,0,1,395,2597Zm0,20a9,9,0,1,0-9-9A8.812,8.812,0,0,0,395,2617Zm0.028-15c1.812,0,3.974,1.08,3.974,3.44,0,1.71-1.632,2.34-2,2.56a3.871,3.871,0,0,0-1,1v2h-2s-0.019-1.71,0-2c0.052-.81.8-1.38,2-2,0.43-.23,1-0.26,1-1.72,0-.65-0.852-1.28-2-1.28a2.1,2.1,0,0,0-2,2h-2A4.04,4.04,0,0,1,395.028,2602ZM396,2614h-2v-2h2v2Z" transform="translate(-346 -2563)"/>
</svg>
